<svg xmlns="http://www.w3.org/2000/svg" width="1136" height="758" overflow="hidden"><defs><clipPath id="a"><path d="M-1-1h1136v758H-1z"/></clipPath></defs><g clip-path="url(#a)" transform="translate(1 1)"><path fill="#FFF" fill-rule="evenodd" d="M0 0h1134v756H0Z"/><path fill-rule="evenodd" stroke="#000" stroke-miterlimit="8" stroke-width="31.4722" d="M186.92 238.165 291.735 80.942m-65.51 183.427 104.816-157.223m-65.51 183.427L370.346 133.35M763.408 622.486l104.815-157.223m-65.51 183.427 104.816-157.223m-65.51 183.427 104.815-157.223"/><path fill="none" stroke="#FFF" stroke-miterlimit="8" stroke-width="15.7361" d="M793.114 532.954 924.133 620.3"/><path fill="#DA251D" fill-rule="evenodd" d="M671.69 220.694c86.832 57.888 110.296 175.206 52.408 262.038-57.888 86.832-175.206 110.296-262.038 52.408-86.832-57.888-110.296-175.207-52.408-262.038 57.888-86.832 175.207-110.296 262.038-52.408Z"/><path fill="#29166F" fill-rule="evenodd" d="M409.653 273.102c-28.944 43.415-17.213 102.075 26.203 131.019 43.416 28.944 102.076 17.212 131.019-26.204 28.944-43.416 87.604-55.148 131.019-26.204 43.416 28.944 55.148 87.603 26.204 131.019-57.888 86.832-175.206 110.296-262.038 52.408-86.832-57.888-110.295-175.207-52.407-262.038Z"/><path fill-rule="evenodd" stroke="#000" stroke-miterlimit="8" stroke-width="31.4722" d="M842.015 80.942 946.83 238.165M802.709 107.146l104.816 157.223M763.404 133.35l104.815 157.223M265.527 465.263l104.815 157.223m-144.12-131.019L331.037 648.69M186.916 517.671l104.815 157.223"/><path fill="none" stroke="#FFF" stroke-miterlimit="8" stroke-width="15.7361" d="m878.276 166.103-39.306 26.203M347.649 519.854l-45.857 30.571m-39.306 26.204-39.306 26.204"/></g></svg>